# xmcd
#
# Track frame offsets:
#	150
#	23569
#	36762
#	50972
#	62228
#	74787
#	85695
#	98087
#	108800
#	118816
#	128310
#	140068
#	151812
#	165687
#	179082
#	187970
#	199797
#	211802
#	222864
#
# Disc length: 3613 seconds
#
# Revision: 1
# Processed by: cddbd v1.5.1PL2 Copyright (c) Steve Scherf et al.
# Submitted via: audiograbber 1.83.01
#
DISCID=120e1b13
DTITLE=LUIZ GONZAGA - SELEÇÃO POR IRACI MOURA
DYEAR=1900
DGENRE=
TTITLE0=JORNAL DA GLOBO - NOTÍCIA DA MORTE
TTITLE1=LUIZ GONZAGA - ACAUÃ
TTITLE2=LUIZ GONZAGA - RANCHINHO DE PAIA
TTITLE3=LUIZ GONZAGA - FOGO-PAGÔ
TTITLE4=LUIZ GONZAGA - O CAÇADOR
TTITLE5=LUIZ GONZAGA - ONDE O NORDESTE GAROA
TTITLE6=LUIZ GONZAGA - PENERÔ XERÉM
TTITLE7=LUIZ GONZAGA - LAMPIÃO FALOU
TTITLE8=LUIZ GONZAGA - SOU DO BANCO
TTITLE9=LUIZ GONZAGA - JUVINA
TTITLE10=LUIZ GONZAGA - SAUDADE DE PERNAMBUCO
TTITLE11=LUIZ GONZAGA - UMBUZEIRO DA SAUDADE
TTITLE12=LUIZ GONZAGA - XAMEGO
TTITLE13=LUIZ GONZAGA - TROPEIROS DA BORBOREMA
TTITLE14=LUIZ GONZAGA - FROM UNITED STATES OF PIAUÍ
TTITLE15=LUIZ GONZAGA - PÃO DURO
TTITLE16=LUIZ GONZAGA - TACACÁ
TTITLE17=LUIZ GONZAGA - PIAUÍ
TTITLE18=LUIZ GONZAGA - SAMARICA PARTEIRA
EXTD=
EXTT0=
EXTT1=
EXTT2=
EXTT3=
EXTT4=
EXTT5=
EXTT6=
EXTT7=
EXTT8=
EXTT9=
EXTT10=
EXTT11=
EXTT12=
EXTT13=
EXTT14=
EXTT15=
EXTT16=
EXTT17=
EXTT18=
PLAYORDER=
